<svg width="19" height="15" viewBox="0 0 19 15" fill="none" xmlns="http://www.w3.org/2000/svg">
<path d="M15.3888 3.97831H11.7541L10.3785 2.18325C10.2902 2.0681 10.1496 2 10 2C9.85041 2 9.70978 2.0681 9.62153 2.18325L8.24594 3.97831H4.61122C3.17137 3.97831 2 5.09537 2 6.46848V12.295C2 13.6681 3.17137 14.7852 4.61122 14.7852H15.3888C16.8286 14.7852 18 13.6681 18 12.295V6.46848C18 5.09537 16.8286 3.97831 15.3888 3.97831ZM15.3888 4.87234C15.9846 4.87234 16.5083 5.17097 16.805 5.6193L12.3081 8.34257V6.7785H12.9768C13.1533 6.7785 13.3148 6.68394 13.3947 6.53386C13.4747 6.38378 13.4594 6.20364 13.3552 6.06771L12.4392 4.87234H15.3888ZM10 3.20462L12.0536 5.88447H11.8394C11.5805 5.88447 11.3707 6.08461 11.3707 6.33148V8.90539C10.5207 9.36159 9.47406 9.35607 8.62937 8.89034V6.33148C8.62937 6.08461 8.4195 5.88447 8.16062 5.88447H7.94641L10 3.20462ZM4.61122 4.87234H7.56084L6.64481 6.06771C6.54066 6.20364 6.52541 6.38375 6.60531 6.53386C6.68522 6.68394 6.84678 6.7785 7.02328 6.7785H7.69191V8.31435L3.23897 5.55624C3.54181 5.14323 4.04381 4.87234 4.61122 4.87234ZM2.9375 6.46848C2.9375 6.45763 2.93813 6.4469 2.93837 6.43611L7.79728 9.44571L3.53175 13.5134C3.16866 13.2204 2.9375 12.783 2.9375 12.295V6.46848ZM4.61122 13.8911C4.56297 13.8911 4.51528 13.8887 4.46806 13.8849L8.65519 9.8919C9.09106 10.0554 9.55253 10.1378 10.0143 10.1378C10.4687 10.1378 10.9229 10.058 11.3527 9.8994L15.532 13.8848C15.4847 13.8887 15.4371 13.8911 15.3888 13.8911H4.61122V13.8911ZM16.4683 13.5134L12.2154 9.45775L17.0625 6.52239V12.295C17.0625 12.783 16.8313 13.2204 16.4683 13.5134Z" fill="#10B549"/>
</svg>
