<svg width="20" height="13" viewBox="0 0 20 13" fill="none" xmlns="http://www.w3.org/2000/svg">
<path d="M9.81739 1.40625C6.44739 1.40625 3.39239 3.25026 1.13739 6.24426C1.04816 6.36479 1 6.51079 1 6.66075C1 6.81072 1.04816 6.95672 1.13739 7.07726C3.39239 10.0773 6.44839 11.9193 9.81739 11.9193C13.1864 11.9193 16.2424 10.0753 18.4974 7.08125C18.5866 6.96072 18.6348 6.81472 18.6348 6.66475C18.6348 6.51478 18.5866 6.36878 18.4974 6.24825C16.2434 3.25025 13.1874 1.40625 9.81739 1.40625ZM9.94739 8.65425C9.54155 8.68083 9.13725 8.58306 8.78841 8.37395C8.43957 8.16485 8.16277 7.85436 7.99492 7.4839C7.82708 7.11344 7.77617 6.70062 7.84898 6.30048C7.92179 5.90034 8.11487 5.5319 8.40246 5.24432C8.69004 4.95673 9.05847 4.76365 9.45861 4.69084C9.85875 4.61803 10.2716 4.66894 10.642 4.83678C11.0125 5.00463 11.323 5.28143 11.5321 5.63027C11.7412 5.97911 11.839 6.38341 11.8124 6.78925C11.7819 7.2739 11.5757 7.73078 11.2323 8.07415C10.8889 8.41752 10.432 8.62379 9.94739 8.65425V8.65425Z" stroke="#F2C94C"/>
</svg>
