<svg width="14" height="14" viewBox="0 0 14 14" fill="none" xmlns="http://www.w3.org/2000/svg">
<mask id="mask0" mask-type="alpha" maskUnits="userSpaceOnUse" x="0" y="0" width="14" height="15">
<path fill-rule="evenodd" clip-rule="evenodd" d="M0 0H14V14.0008H0V0Z" fill="white"/>
</mask>
<g mask="url(#mask0)">
<path fill-rule="evenodd" clip-rule="evenodd" d="M4.86277 6.89173C4.87569 6.90322 4.8879 6.91399 4.9001 6.92691C5.67478 7.72098 6.10197 8.7728 6.10197 9.88923V12.7496L7.70734 11.8751C7.8337 11.8062 7.91196 11.6712 7.91196 11.5226V9.88061C7.91196 8.76849 8.33484 7.72026 9.10234 6.9305L12.5751 3.23658C12.7999 2.9975 12.9233 2.68375 12.9233 2.35277V1.68075C12.9233 1.34762 12.6606 1.07695 12.3389 1.07695H1.66209C1.33972 1.07695 1.07695 1.34762 1.07695 1.68075V2.35277C1.07695 2.68375 1.20043 2.9975 1.42516 3.23586L4.86277 6.89173ZM5.84853 14.001C5.7035 14.001 5.55991 13.9622 5.42924 13.8847C5.17652 13.7339 5.02503 13.4676 5.02503 13.1718V9.88923C5.02503 9.07434 4.72133 8.30684 4.16778 7.71883C4.15127 7.70518 4.13475 7.69011 4.12039 7.67431L0.641141 3.97465C0.227594 3.53525 0 2.95873 0 2.35277V1.68075C0 0.753862 0.745964 0 1.66209 0H12.3389C13.2543 0 14.0003 0.753862 14.0003 1.68075V2.35277C14.0003 2.95801 13.7727 3.53382 13.3606 3.97393L9.88061 7.67431C9.30409 8.26879 8.9889 9.05065 8.9889 9.88061V11.5226C8.9889 12.0654 8.69526 12.5622 8.22284 12.8207L6.24054 13.9005C6.11705 13.9673 5.98279 14.001 5.84853 14.001Z" fill="#130F26"/>
</g>
</svg>
